<mxfile host="Electron" modified="2023-04-06T22:18:06.477Z" agent="Mozilla/5.0 (Windows NT 10.0; WOW64) AppleWebKit/537.36 (KHTML, like Gecko) draw.io/21.1.2 Chrome/106.0.5249.199 Electron/21.4.3 Safari/537.36" etag="M7fledUFXAV8QxxDp3b1" version="21.1.2" type="device">
  <diagram id="R2lEEEUBdFMjLlhIrx00" name="Page-1">
    <mxGraphModel dx="1036" dy="606" grid="1" gridSize="10" guides="1" tooltips="1" connect="1" arrows="1" fold="1" page="1" pageScale="1" pageWidth="1654" pageHeight="1169" math="0" shadow="0" extFonts="Permanent Marker^https://fonts.googleapis.com/css?family=Permanent+Marker">
      <root>
        <mxCell id="0" />
        <mxCell id="1" parent="0" />
        <mxCell id="19JvVLlUhK9XyN5sT54u-1" value="DIPENDENTE CON CONTRATTO&#xa;A TEMPO INDETERMINATO" style="swimlane;fontStyle=0;childLayout=stackLayout;horizontal=1;startSize=34;fillColor=none;horizontalStack=0;resizeParent=1;resizeParentMax=0;resizeLast=0;collapsible=1;marginBottom=0;" parent="1" vertex="1">
          <mxGeometry x="300" y="256" width="220" height="294" as="geometry" />
        </mxCell>
        <mxCell id="19JvVLlUhK9XyN5sT54u-2" value="Matricola {PK}: Varchar" style="text;strokeColor=none;fillColor=none;align=left;verticalAlign=top;spacingLeft=4;spacingRight=4;overflow=hidden;rotatable=0;points=[[0,0.5],[1,0.5]];portConstraint=eastwest;fontStyle=0" parent="19JvVLlUhK9XyN5sT54u-1" vertex="1">
          <mxGeometry y="34" width="220" height="26" as="geometry" />
        </mxCell>
        <mxCell id="19JvVLlUhK9XyN5sT54u-3" value="Codice Fiscale: Varchar" style="text;strokeColor=none;fillColor=none;align=left;verticalAlign=top;spacingLeft=4;spacingRight=4;overflow=hidden;rotatable=0;points=[[0,0.5],[1,0.5]];portConstraint=eastwest;" parent="19JvVLlUhK9XyN5sT54u-1" vertex="1">
          <mxGeometry y="60" width="220" height="26" as="geometry" />
        </mxCell>
        <mxCell id="19JvVLlUhK9XyN5sT54u-4" value="Nome: Varchar" style="text;strokeColor=none;fillColor=none;align=left;verticalAlign=top;spacingLeft=4;spacingRight=4;overflow=hidden;rotatable=0;points=[[0,0.5],[1,0.5]];portConstraint=eastwest;" parent="19JvVLlUhK9XyN5sT54u-1" vertex="1">
          <mxGeometry y="86" width="220" height="26" as="geometry" />
        </mxCell>
        <mxCell id="19JvVLlUhK9XyN5sT54u-5" value="Cognome: Varchar" style="text;strokeColor=none;fillColor=none;align=left;verticalAlign=top;spacingLeft=4;spacingRight=4;overflow=hidden;rotatable=0;points=[[0,0.5],[1,0.5]];portConstraint=eastwest;" parent="19JvVLlUhK9XyN5sT54u-1" vertex="1">
          <mxGeometry y="112" width="220" height="26" as="geometry" />
        </mxCell>
        <mxCell id="19JvVLlUhK9XyN5sT54u-6" value="Data di nascita: Date" style="text;strokeColor=none;fillColor=none;align=left;verticalAlign=top;spacingLeft=4;spacingRight=4;overflow=hidden;rotatable=0;points=[[0,0.5],[1,0.5]];portConstraint=eastwest;" parent="19JvVLlUhK9XyN5sT54u-1" vertex="1">
          <mxGeometry y="138" width="220" height="26" as="geometry" />
        </mxCell>
        <mxCell id="19JvVLlUhK9XyN5sT54u-7" value="Indirizzo di residenza: Varchar" style="text;strokeColor=none;fillColor=none;align=left;verticalAlign=top;spacingLeft=4;spacingRight=4;overflow=hidden;rotatable=0;points=[[0,0.5],[1,0.5]];portConstraint=eastwest;" parent="19JvVLlUhK9XyN5sT54u-1" vertex="1">
          <mxGeometry y="164" width="220" height="26" as="geometry" />
        </mxCell>
        <mxCell id="19JvVLlUhK9XyN5sT54u-8" value="Tipo: Varchar" style="text;strokeColor=none;fillColor=none;align=left;verticalAlign=top;spacingLeft=4;spacingRight=4;overflow=hidden;rotatable=0;points=[[0,0.5],[1,0.5]];portConstraint=eastwest;" parent="19JvVLlUhK9XyN5sT54u-1" vertex="1">
          <mxGeometry y="190" width="220" height="26" as="geometry" />
        </mxCell>
        <mxCell id="19JvVLlUhK9XyN5sT54u-9" value="Dirigente: Boolean" style="text;strokeColor=none;fillColor=none;align=left;verticalAlign=top;spacingLeft=4;spacingRight=4;overflow=hidden;rotatable=0;points=[[0,0.5],[1,0.5]];portConstraint=eastwest;" parent="19JvVLlUhK9XyN5sT54u-1" vertex="1">
          <mxGeometry y="216" width="220" height="26" as="geometry" />
        </mxCell>
        <mxCell id="19JvVLlUhK9XyN5sT54u-10" value="Data di assunzione: Date" style="text;strokeColor=none;fillColor=none;align=left;verticalAlign=top;spacingLeft=4;spacingRight=4;overflow=hidden;rotatable=0;points=[[0,0.5],[1,0.5]];portConstraint=eastwest;" parent="19JvVLlUhK9XyN5sT54u-1" vertex="1">
          <mxGeometry y="242" width="220" height="26" as="geometry" />
        </mxCell>
        <mxCell id="19JvVLlUhK9XyN5sT54u-11" value="Data di fine rapporto [0 ... 1]: Date" style="text;strokeColor=none;fillColor=none;align=left;verticalAlign=top;spacingLeft=4;spacingRight=4;overflow=hidden;rotatable=0;points=[[0,0.5],[1,0.5]];portConstraint=eastwest;" parent="19JvVLlUhK9XyN5sT54u-1" vertex="1">
          <mxGeometry y="268" width="220" height="26" as="geometry" />
        </mxCell>
        <mxCell id="19JvVLlUhK9XyN5sT54u-12" value="DIPENDENTE CON CONTRATTO&#xa;A PROGETTO" style="swimlane;fontStyle=0;childLayout=stackLayout;horizontal=1;startSize=30;fillColor=none;horizontalStack=0;resizeParent=1;resizeParentMax=0;resizeLast=0;collapsible=1;marginBottom=0;" parent="1" vertex="1">
          <mxGeometry x="810" y="801" width="210" height="238" as="geometry" />
        </mxCell>
        <mxCell id="19JvVLlUhK9XyN5sT54u-13" value="Matricola {PK}: Varchar" style="text;strokeColor=none;fillColor=none;align=left;verticalAlign=top;spacingLeft=4;spacingRight=4;overflow=hidden;rotatable=0;points=[[0,0.5],[1,0.5]];portConstraint=eastwest;fontStyle=0" parent="19JvVLlUhK9XyN5sT54u-12" vertex="1">
          <mxGeometry y="30" width="210" height="26" as="geometry" />
        </mxCell>
        <mxCell id="19JvVLlUhK9XyN5sT54u-14" value="Codice Fiscale: Varchar" style="text;strokeColor=none;fillColor=none;align=left;verticalAlign=top;spacingLeft=4;spacingRight=4;overflow=hidden;rotatable=0;points=[[0,0.5],[1,0.5]];portConstraint=eastwest;" parent="19JvVLlUhK9XyN5sT54u-12" vertex="1">
          <mxGeometry y="56" width="210" height="26" as="geometry" />
        </mxCell>
        <mxCell id="19JvVLlUhK9XyN5sT54u-15" value="Nome: Varchar" style="text;strokeColor=none;fillColor=none;align=left;verticalAlign=top;spacingLeft=4;spacingRight=4;overflow=hidden;rotatable=0;points=[[0,0.5],[1,0.5]];portConstraint=eastwest;" parent="19JvVLlUhK9XyN5sT54u-12" vertex="1">
          <mxGeometry y="82" width="210" height="26" as="geometry" />
        </mxCell>
        <mxCell id="19JvVLlUhK9XyN5sT54u-16" value="Cognome: Varchar" style="text;strokeColor=none;fillColor=none;align=left;verticalAlign=top;spacingLeft=4;spacingRight=4;overflow=hidden;rotatable=0;points=[[0,0.5],[1,0.5]];portConstraint=eastwest;" parent="19JvVLlUhK9XyN5sT54u-12" vertex="1">
          <mxGeometry y="108" width="210" height="26" as="geometry" />
        </mxCell>
        <mxCell id="19JvVLlUhK9XyN5sT54u-17" value="Data di nascita: Date" style="text;strokeColor=none;fillColor=none;align=left;verticalAlign=top;spacingLeft=4;spacingRight=4;overflow=hidden;rotatable=0;points=[[0,0.5],[1,0.5]];portConstraint=eastwest;" parent="19JvVLlUhK9XyN5sT54u-12" vertex="1">
          <mxGeometry y="134" width="210" height="26" as="geometry" />
        </mxCell>
        <mxCell id="19JvVLlUhK9XyN5sT54u-18" value="Indirizzo di residenza: Varchar" style="text;strokeColor=none;fillColor=none;align=left;verticalAlign=top;spacingLeft=4;spacingRight=4;overflow=hidden;rotatable=0;points=[[0,0.5],[1,0.5]];portConstraint=eastwest;" parent="19JvVLlUhK9XyN5sT54u-12" vertex="1">
          <mxGeometry y="160" width="210" height="26" as="geometry" />
        </mxCell>
        <mxCell id="19JvVLlUhK9XyN5sT54u-19" value="Data di assunzione: Date" style="text;strokeColor=none;fillColor=none;align=left;verticalAlign=top;spacingLeft=4;spacingRight=4;overflow=hidden;rotatable=0;points=[[0,0.5],[1,0.5]];portConstraint=eastwest;" parent="19JvVLlUhK9XyN5sT54u-12" vertex="1">
          <mxGeometry y="186" width="210" height="26" as="geometry" />
        </mxCell>
        <mxCell id="19JvVLlUhK9XyN5sT54u-20" value="Scadenza: Date" style="text;strokeColor=none;fillColor=none;align=left;verticalAlign=top;spacingLeft=4;spacingRight=4;overflow=hidden;rotatable=0;points=[[0,0.5],[1,0.5]];portConstraint=eastwest;" parent="19JvVLlUhK9XyN5sT54u-12" vertex="1">
          <mxGeometry y="212" width="210" height="26" as="geometry" />
        </mxCell>
        <mxCell id="19JvVLlUhK9XyN5sT54u-21" style="edgeStyle=orthogonalEdgeStyle;rounded=0;orthogonalLoop=1;jettySize=auto;html=1;endArrow=none;endFill=0;" parent="1" source="19JvVLlUhK9XyN5sT54u-22" target="19JvVLlUhK9XyN5sT54u-26" edge="1">
          <mxGeometry relative="1" as="geometry">
            <Array as="points">
              <mxPoint x="920" y="249" />
              <mxPoint x="920" y="249" />
            </Array>
          </mxGeometry>
        </mxCell>
        <mxCell id="19JvVLlUhK9XyN5sT54u-22" value="LABORATORIO" style="swimlane;fontStyle=0;childLayout=stackLayout;horizontal=1;startSize=26;fillColor=none;horizontalStack=0;resizeParent=1;resizeParentMax=0;resizeLast=0;collapsible=1;marginBottom=0;" parent="1" vertex="1">
          <mxGeometry x="819" y="299" width="201" height="104" as="geometry" />
        </mxCell>
        <mxCell id="19JvVLlUhK9XyN5sT54u-23" value="Nome {PK}: Varchar" style="text;strokeColor=none;fillColor=none;align=left;verticalAlign=top;spacingLeft=4;spacingRight=4;overflow=hidden;rotatable=0;points=[[0,0.5],[1,0.5]];portConstraint=eastwest;fontStyle=0" parent="19JvVLlUhK9XyN5sT54u-22" vertex="1">
          <mxGeometry y="26" width="201" height="26" as="geometry" />
        </mxCell>
        <mxCell id="19JvVLlUhK9XyN5sT54u-25" value="Topic: Varchar" style="text;strokeColor=none;fillColor=none;align=left;verticalAlign=top;spacingLeft=4;spacingRight=4;overflow=hidden;rotatable=0;points=[[0,0.5],[1,0.5]];portConstraint=eastwest;" parent="19JvVLlUhK9XyN5sT54u-22" vertex="1">
          <mxGeometry y="52" width="201" height="26" as="geometry" />
        </mxCell>
        <mxCell id="19JvVLlUhK9XyN5sT54u-24" value="&lt;&lt;derive&gt;&gt; Numero di afferenti: Int" style="text;strokeColor=none;fillColor=none;align=left;verticalAlign=top;spacingLeft=4;spacingRight=4;overflow=hidden;rotatable=0;points=[[0,0.5],[1,0.5]];portConstraint=eastwest;fontSize=12;strokeWidth=1;" parent="19JvVLlUhK9XyN5sT54u-22" vertex="1">
          <mxGeometry y="78" width="201" height="26" as="geometry" />
        </mxCell>
        <mxCell id="19JvVLlUhK9XyN5sT54u-26" value="ATTREZZATURA" style="swimlane;fontStyle=0;childLayout=stackLayout;horizontal=1;startSize=26;fillColor=none;horizontalStack=0;resizeParent=1;resizeParentMax=0;resizeLast=0;collapsible=1;marginBottom=0;" parent="1" vertex="1">
          <mxGeometry x="819" y="120" width="190" height="78" as="geometry" />
        </mxCell>
        <mxCell id="19JvVLlUhK9XyN5sT54u-27" value="idAttrezzatura {PK}: Int" style="text;strokeColor=none;fillColor=none;align=left;verticalAlign=top;spacingLeft=4;spacingRight=4;overflow=hidden;rotatable=0;points=[[0,0.5],[1,0.5]];portConstraint=eastwest;fontStyle=0" parent="19JvVLlUhK9XyN5sT54u-26" vertex="1">
          <mxGeometry y="26" width="190" height="26" as="geometry" />
        </mxCell>
        <mxCell id="19JvVLlUhK9XyN5sT54u-28" value="Descrizione: Varchar" style="text;strokeColor=none;fillColor=none;align=left;verticalAlign=top;spacingLeft=4;spacingRight=4;overflow=hidden;rotatable=0;points=[[0,0.5],[1,0.5]];portConstraint=eastwest;" parent="19JvVLlUhK9XyN5sT54u-26" vertex="1">
          <mxGeometry y="52" width="190" height="26" as="geometry" />
        </mxCell>
        <mxCell id="19JvVLlUhK9XyN5sT54u-29" style="edgeStyle=orthogonalEdgeStyle;rounded=0;orthogonalLoop=1;jettySize=auto;html=1;endArrow=none;endFill=0;" parent="1" target="19JvVLlUhK9XyN5sT54u-12" edge="1">
          <mxGeometry relative="1" as="geometry">
            <Array as="points">
              <mxPoint x="920" y="761" />
              <mxPoint x="920" y="761" />
            </Array>
            <mxPoint x="919.5384615384614" y="676" as="sourcePoint" />
          </mxGeometry>
        </mxCell>
        <mxCell id="19JvVLlUhK9XyN5sT54u-30" value="PROGETTO" style="swimlane;fontStyle=0;childLayout=stackLayout;horizontal=1;startSize=26;fillColor=none;horizontalStack=0;resizeParent=1;resizeParentMax=0;resizeLast=0;collapsible=1;marginBottom=0;" parent="1" vertex="1">
          <mxGeometry x="784.5" y="459" width="295.5" height="218" as="geometry" />
        </mxCell>
        <mxCell id="19JvVLlUhK9XyN5sT54u-32" value="CUP {PK}: Varchar" style="text;strokeColor=none;fillColor=none;align=left;verticalAlign=top;spacingLeft=4;spacingRight=4;overflow=hidden;rotatable=0;points=[[0,0.5],[1,0.5]];portConstraint=eastwest;" parent="19JvVLlUhK9XyN5sT54u-30" vertex="1">
          <mxGeometry y="26" width="295.5" height="26" as="geometry" />
        </mxCell>
        <mxCell id="19JvVLlUhK9XyN5sT54u-31" value="Nome: Varchar" style="text;strokeColor=none;fillColor=none;align=left;verticalAlign=top;spacingLeft=4;spacingRight=4;overflow=hidden;rotatable=0;points=[[0,0.5],[1,0.5]];portConstraint=eastwest;fontStyle=0" parent="19JvVLlUhK9XyN5sT54u-30" vertex="1">
          <mxGeometry y="52" width="295.5" height="26" as="geometry" />
        </mxCell>
        <mxCell id="19JvVLlUhK9XyN5sT54u-33" value="Budget totale: Decimal" style="text;strokeColor=none;fillColor=none;align=left;verticalAlign=top;spacingLeft=4;spacingRight=4;overflow=hidden;rotatable=0;points=[[0,0.5],[1,0.5]];portConstraint=eastwest;" parent="19JvVLlUhK9XyN5sT54u-30" vertex="1">
          <mxGeometry y="78" width="295.5" height="26" as="geometry" />
        </mxCell>
        <mxCell id="19JvVLlUhK9XyN5sT54u-34" value="&lt;&lt;derive&gt;&gt; Costo totale attrezzature: Decimal" style="text;strokeColor=none;fillColor=none;align=left;verticalAlign=top;spacingLeft=4;spacingRight=4;overflow=hidden;rotatable=0;points=[[0,0.5],[1,0.5]];portConstraint=eastwest;" parent="19JvVLlUhK9XyN5sT54u-30" vertex="1">
          <mxGeometry y="104" width="295.5" height="26" as="geometry" />
        </mxCell>
        <mxCell id="19JvVLlUhK9XyN5sT54u-35" value="&lt;&lt;derive&gt;&gt; Costo totale contratti a progetto: Decimal" style="text;strokeColor=none;fillColor=none;align=left;verticalAlign=middle;spacingLeft=4;spacingRight=4;overflow=hidden;rotatable=0;points=[[0,0.5],[1,0.5]];portConstraint=eastwest;" parent="19JvVLlUhK9XyN5sT54u-30" vertex="1">
          <mxGeometry y="130" width="295.5" height="36" as="geometry" />
        </mxCell>
        <mxCell id="e3bR0J4pARfPu-sF5I-Z-1" value="Data Inizio: Date" style="text;strokeColor=none;fillColor=none;align=left;verticalAlign=top;spacingLeft=4;spacingRight=4;overflow=hidden;rotatable=0;points=[[0,0.5],[1,0.5]];portConstraint=eastwest;" parent="19JvVLlUhK9XyN5sT54u-30" vertex="1">
          <mxGeometry y="166" width="295.5" height="26" as="geometry" />
        </mxCell>
        <mxCell id="e3bR0J4pARfPu-sF5I-Z-2" value="Data Fine: Date" style="text;strokeColor=none;fillColor=none;align=left;verticalAlign=top;spacingLeft=4;spacingRight=4;overflow=hidden;rotatable=0;points=[[0,0.5],[1,0.5]];portConstraint=eastwest;" parent="19JvVLlUhK9XyN5sT54u-30" vertex="1">
          <mxGeometry y="192" width="295.5" height="26" as="geometry" />
        </mxCell>
        <mxCell id="19JvVLlUhK9XyN5sT54u-36" style="edgeStyle=orthogonalEdgeStyle;rounded=0;orthogonalLoop=1;jettySize=auto;html=1;endArrow=none;endFill=0;" parent="1" source="19JvVLlUhK9XyN5sT54u-37" target="19JvVLlUhK9XyN5sT54u-1" edge="1">
          <mxGeometry relative="1" as="geometry">
            <Array as="points" />
          </mxGeometry>
        </mxCell>
        <mxCell id="19JvVLlUhK9XyN5sT54u-37" value="SCATTO DI CARRIERA" style="swimlane;fontStyle=0;childLayout=stackLayout;horizontal=1;startSize=26;fillColor=none;horizontalStack=0;resizeParent=1;resizeParentMax=0;resizeLast=0;collapsible=1;marginBottom=0;" parent="1" vertex="1">
          <mxGeometry x="315" y="660" width="190" height="78" as="geometry" />
        </mxCell>
        <mxCell id="19JvVLlUhK9XyN5sT54u-38" value="Tipo: Varchar" style="text;strokeColor=none;fillColor=none;align=left;verticalAlign=top;spacingLeft=4;spacingRight=4;overflow=hidden;rotatable=0;points=[[0,0.5],[1,0.5]];portConstraint=eastwest;fontStyle=0" parent="19JvVLlUhK9XyN5sT54u-37" vertex="1">
          <mxGeometry y="26" width="190" height="26" as="geometry" />
        </mxCell>
        <mxCell id="19JvVLlUhK9XyN5sT54u-39" value="Data: Date" style="text;strokeColor=none;fillColor=none;align=left;verticalAlign=top;spacingLeft=4;spacingRight=4;overflow=hidden;rotatable=0;points=[[0,0.5],[1,0.5]];portConstraint=eastwest;" parent="19JvVLlUhK9XyN5sT54u-37" vertex="1">
          <mxGeometry y="52" width="190" height="26" as="geometry" />
        </mxCell>
        <mxCell id="19JvVLlUhK9XyN5sT54u-40" style="rounded=0;orthogonalLoop=1;jettySize=auto;html=1;endArrow=none;endFill=0;endSize=18;edgeStyle=orthogonalEdgeStyle;" parent="1" source="19JvVLlUhK9XyN5sT54u-1" target="19JvVLlUhK9XyN5sT54u-22" edge="1">
          <mxGeometry relative="1" as="geometry">
            <mxPoint x="520" y="379" as="sourcePoint" />
            <Array as="points">
              <mxPoint x="590" y="380" />
              <mxPoint x="590" y="380" />
            </Array>
          </mxGeometry>
        </mxCell>
        <mxCell id="19JvVLlUhK9XyN5sT54u-41" value="1..*" style="text;html=1;align=center;verticalAlign=middle;resizable=0;points=[];autosize=1;strokeColor=none;fillColor=none;" parent="1" vertex="1">
          <mxGeometry x="515.5" y="357" width="40" height="30" as="geometry" />
        </mxCell>
        <mxCell id="19JvVLlUhK9XyN5sT54u-42" value="*" style="text;html=1;align=center;verticalAlign=middle;resizable=0;points=[];autosize=1;strokeColor=none;fillColor=none;" parent="1" vertex="1">
          <mxGeometry x="792" y="360" width="30" height="30" as="geometry" />
        </mxCell>
        <mxCell id="19JvVLlUhK9XyN5sT54u-43" value="Afferire" style="text;html=1;align=center;verticalAlign=middle;resizable=0;points=[];autosize=1;strokeColor=none;fillColor=none;" parent="1" vertex="1">
          <mxGeometry x="640" y="357" width="60" height="30" as="geometry" />
        </mxCell>
        <mxCell id="19JvVLlUhK9XyN5sT54u-44" style="rounded=0;orthogonalLoop=1;jettySize=auto;html=1;endArrow=none;endFill=0;edgeStyle=orthogonalEdgeStyle;" parent="1" source="19JvVLlUhK9XyN5sT54u-1" target="19JvVLlUhK9XyN5sT54u-22" edge="1">
          <mxGeometry relative="1" as="geometry">
            <mxPoint x="520" y="326.07579462102694" as="sourcePoint" />
            <mxPoint x="819" y="329" as="targetPoint" />
            <Array as="points">
              <mxPoint x="680" y="320" />
              <mxPoint x="680" y="320" />
            </Array>
          </mxGeometry>
        </mxCell>
        <mxCell id="19JvVLlUhK9XyN5sT54u-45" value="1..1" style="text;html=1;align=center;verticalAlign=middle;resizable=0;points=[];autosize=1;strokeColor=none;fillColor=none;" parent="1" vertex="1">
          <mxGeometry x="515.5" y="295" width="40" height="30" as="geometry" />
        </mxCell>
        <mxCell id="19JvVLlUhK9XyN5sT54u-46" value="*" style="text;html=1;align=center;verticalAlign=middle;resizable=0;points=[];autosize=1;strokeColor=none;fillColor=none;" parent="1" vertex="1">
          <mxGeometry x="791" y="300" width="30" height="30" as="geometry" />
        </mxCell>
        <mxCell id="19JvVLlUhK9XyN5sT54u-47" value="Responsabile Scientifico" style="text;html=1;align=center;verticalAlign=middle;resizable=0;points=[];autosize=1;strokeColor=none;fillColor=none;" parent="1" vertex="1">
          <mxGeometry x="595" y="295" width="150" height="30" as="geometry" />
        </mxCell>
        <mxCell id="19JvVLlUhK9XyN5sT54u-48" style="rounded=0;orthogonalLoop=1;jettySize=auto;html=1;endArrow=none;endFill=0;edgeStyle=orthogonalEdgeStyle;" parent="1" source="19JvVLlUhK9XyN5sT54u-1" target="19JvVLlUhK9XyN5sT54u-30" edge="1">
          <mxGeometry relative="1" as="geometry">
            <mxPoint x="520" y="470" as="sourcePoint" />
            <Array as="points">
              <mxPoint x="600" y="470" />
              <mxPoint x="600" y="470" />
            </Array>
          </mxGeometry>
        </mxCell>
        <mxCell id="19JvVLlUhK9XyN5sT54u-49" value="Referente Scientifico" style="text;html=1;align=center;verticalAlign=middle;resizable=0;points=[];autosize=1;strokeColor=none;fillColor=none;" parent="1" vertex="1">
          <mxGeometry x="595" y="447" width="130" height="30" as="geometry" />
        </mxCell>
        <mxCell id="19JvVLlUhK9XyN5sT54u-50" value="1..1" style="text;html=1;align=center;verticalAlign=middle;resizable=0;points=[];autosize=1;strokeColor=none;fillColor=none;" parent="1" vertex="1">
          <mxGeometry x="515.5" y="447" width="40" height="30" as="geometry" />
        </mxCell>
        <mxCell id="19JvVLlUhK9XyN5sT54u-51" value="*" style="text;html=1;align=center;verticalAlign=middle;resizable=0;points=[];autosize=1;strokeColor=none;fillColor=none;" parent="1" vertex="1">
          <mxGeometry x="759" y="450" width="30" height="30" as="geometry" />
        </mxCell>
        <mxCell id="19JvVLlUhK9XyN5sT54u-52" value="1..1" style="text;html=1;align=center;verticalAlign=middle;resizable=0;points=[];autosize=1;strokeColor=none;fillColor=none;" parent="1" vertex="1">
          <mxGeometry x="515.5" y="496" width="40" height="30" as="geometry" />
        </mxCell>
        <mxCell id="19JvVLlUhK9XyN5sT54u-55" value="Responsabile" style="text;html=1;align=center;verticalAlign=middle;resizable=0;points=[];autosize=1;strokeColor=none;fillColor=none;" parent="1" vertex="1">
          <mxGeometry x="610" y="496" width="100" height="30" as="geometry" />
        </mxCell>
        <mxCell id="19JvVLlUhK9XyN5sT54u-56" style="edgeStyle=orthogonalEdgeStyle;rounded=0;orthogonalLoop=1;jettySize=auto;html=1;endArrow=none;endFill=0;" parent="1" source="19JvVLlUhK9XyN5sT54u-22" target="19JvVLlUhK9XyN5sT54u-30" edge="1">
          <mxGeometry relative="1" as="geometry">
            <Array as="points">
              <mxPoint x="1100" y="340" />
              <mxPoint x="1100" y="542" />
            </Array>
          </mxGeometry>
        </mxCell>
        <mxCell id="19JvVLlUhK9XyN5sT54u-57" value="Lavorare" style="text;html=1;align=center;verticalAlign=middle;resizable=0;points=[];autosize=1;strokeColor=none;fillColor=none;" parent="1" vertex="1">
          <mxGeometry x="1094" y="420" width="70" height="30" as="geometry" />
        </mxCell>
        <mxCell id="19JvVLlUhK9XyN5sT54u-58" value="*" style="text;html=1;align=center;verticalAlign=middle;resizable=0;points=[];autosize=1;strokeColor=none;fillColor=none;" parent="1" vertex="1">
          <mxGeometry x="1018" y="315" width="30" height="30" as="geometry" />
        </mxCell>
        <mxCell id="19JvVLlUhK9XyN5sT54u-59" value="*" style="text;html=1;align=center;verticalAlign=middle;resizable=0;points=[];autosize=1;strokeColor=none;fillColor=none;" parent="1" vertex="1">
          <mxGeometry x="1074" y="539" width="30" height="30" as="geometry" />
        </mxCell>
        <mxCell id="19JvVLlUhK9XyN5sT54u-60" value="Possedere" style="text;html=1;align=center;verticalAlign=middle;resizable=0;points=[];autosize=1;strokeColor=none;fillColor=none;" parent="1" vertex="1">
          <mxGeometry x="912" y="235" width="80" height="30" as="geometry" />
        </mxCell>
        <mxCell id="19JvVLlUhK9XyN5sT54u-61" value="0..1" style="text;html=1;align=center;verticalAlign=middle;resizable=0;points=[];autosize=1;strokeColor=none;fillColor=none;" parent="1" vertex="1">
          <mxGeometry x="913" y="275" width="40" height="30" as="geometry" />
        </mxCell>
        <mxCell id="19JvVLlUhK9XyN5sT54u-62" value="*" style="text;html=1;align=center;verticalAlign=middle;resizable=0;points=[];autosize=1;strokeColor=none;fillColor=none;" parent="1" vertex="1">
          <mxGeometry x="912" y="196" width="30" height="30" as="geometry" />
        </mxCell>
        <mxCell id="19JvVLlUhK9XyN5sT54u-63" value="Progressione" style="text;html=1;align=center;verticalAlign=middle;resizable=0;points=[];autosize=1;strokeColor=none;fillColor=none;" parent="1" vertex="1">
          <mxGeometry x="417" y="578.5" width="90" height="30" as="geometry" />
        </mxCell>
        <mxCell id="19JvVLlUhK9XyN5sT54u-64" value="*" style="text;html=1;align=center;verticalAlign=middle;resizable=0;points=[];autosize=1;strokeColor=none;fillColor=none;" parent="1" vertex="1">
          <mxGeometry x="407" y="544" width="30" height="30" as="geometry" />
        </mxCell>
        <mxCell id="19JvVLlUhK9XyN5sT54u-65" value="1..1" style="text;html=1;align=center;verticalAlign=middle;resizable=0;points=[];autosize=1;strokeColor=none;fillColor=none;" parent="1" vertex="1">
          <mxGeometry x="402" y="635" width="40" height="30" as="geometry" />
        </mxCell>
        <mxCell id="19JvVLlUhK9XyN5sT54u-66" style="edgeStyle=orthogonalEdgeStyle;rounded=0;orthogonalLoop=1;jettySize=auto;html=1;endArrow=none;endFill=0;" parent="1" source="19JvVLlUhK9XyN5sT54u-30" target="19JvVLlUhK9XyN5sT54u-26" edge="1">
          <mxGeometry relative="1" as="geometry">
            <Array as="points">
              <mxPoint x="1170" y="590" />
              <mxPoint x="1170" y="159" />
            </Array>
          </mxGeometry>
        </mxCell>
        <mxCell id="19JvVLlUhK9XyN5sT54u-67" value="*" style="text;html=1;align=center;verticalAlign=middle;resizable=0;points=[];autosize=1;strokeColor=none;fillColor=none;" parent="1" vertex="1">
          <mxGeometry x="1003" y="140" width="30" height="30" as="geometry" />
        </mxCell>
        <mxCell id="19JvVLlUhK9XyN5sT54u-68" value="1..1" style="text;html=1;align=center;verticalAlign=middle;resizable=0;points=[];autosize=1;strokeColor=none;fillColor=none;" parent="1" vertex="1">
          <mxGeometry x="1074" y="584.5" width="40" height="30" as="geometry" />
        </mxCell>
        <mxCell id="19JvVLlUhK9XyN5sT54u-69" style="edgeStyle=orthogonalEdgeStyle;rounded=0;orthogonalLoop=1;jettySize=auto;html=1;endArrow=none;endFill=0;dashed=1;" parent="1" source="19JvVLlUhK9XyN5sT54u-70" edge="1">
          <mxGeometry relative="1" as="geometry">
            <mxPoint x="1170" y="379" as="targetPoint" />
            <Array as="points">
              <mxPoint x="1170" y="379" />
            </Array>
          </mxGeometry>
        </mxCell>
        <mxCell id="19JvVLlUhK9XyN5sT54u-70" value="ACQUISTO" style="swimlane;fontStyle=0;childLayout=stackLayout;horizontal=1;startSize=26;fillColor=none;horizontalStack=0;resizeParent=1;resizeParentMax=0;resizeLast=0;collapsible=1;marginBottom=0;" parent="1" vertex="1">
          <mxGeometry x="1227" y="353" width="140" height="52" as="geometry" />
        </mxCell>
        <mxCell id="19JvVLlUhK9XyN5sT54u-71" value="Costo: Decimal" style="text;strokeColor=none;fillColor=none;align=left;verticalAlign=top;spacingLeft=4;spacingRight=4;overflow=hidden;rotatable=0;points=[[0,0.5],[1,0.5]];portConstraint=eastwest;fontStyle=0" parent="19JvVLlUhK9XyN5sT54u-70" vertex="1">
          <mxGeometry y="26" width="140" height="26" as="geometry" />
        </mxCell>
        <mxCell id="19JvVLlUhK9XyN5sT54u-72" style="edgeStyle=orthogonalEdgeStyle;rounded=0;orthogonalLoop=1;jettySize=auto;html=1;dashed=1;endArrow=none;endFill=0;" parent="1" source="19JvVLlUhK9XyN5sT54u-73" edge="1">
          <mxGeometry relative="1" as="geometry">
            <mxPoint x="920" y="741" as="targetPoint" />
            <Array as="points">
              <mxPoint x="920" y="741" />
            </Array>
          </mxGeometry>
        </mxCell>
        <mxCell id="19JvVLlUhK9XyN5sT54u-73" value="INGAGGIARE" style="swimlane;fontStyle=0;childLayout=stackLayout;horizontal=1;startSize=26;fillColor=none;horizontalStack=0;resizeParent=1;resizeParentMax=0;resizeLast=0;collapsible=1;marginBottom=0;" parent="1" vertex="1">
          <mxGeometry x="1060" y="716" width="160" height="52" as="geometry" />
        </mxCell>
        <mxCell id="19JvVLlUhK9XyN5sT54u-74" value="Costo: Decimal" style="text;strokeColor=none;fillColor=none;align=left;verticalAlign=top;spacingLeft=4;spacingRight=4;overflow=hidden;rotatable=0;points=[[0,0.5],[1,0.5]];portConstraint=eastwest;fontStyle=0" parent="19JvVLlUhK9XyN5sT54u-73" vertex="1">
          <mxGeometry y="26" width="160" height="26" as="geometry" />
        </mxCell>
        <mxCell id="19JvVLlUhK9XyN5sT54u-75" value="1..1" style="text;html=1;align=center;verticalAlign=middle;resizable=0;points=[];autosize=1;strokeColor=none;fillColor=none;" parent="1" vertex="1">
          <mxGeometry x="886" y="670" width="40" height="30" as="geometry" />
        </mxCell>
        <mxCell id="19JvVLlUhK9XyN5sT54u-76" value="*" style="text;html=1;align=center;verticalAlign=middle;resizable=0;points=[];autosize=1;strokeColor=none;fillColor=none;" parent="1" vertex="1">
          <mxGeometry x="896" y="780" width="30" height="30" as="geometry" />
        </mxCell>
        <mxCell id="19JvVLlUhK9XyN5sT54u-53" value="*" style="text;html=1;align=center;verticalAlign=middle;resizable=0;points=[];autosize=1;strokeColor=none;fillColor=none;" parent="1" vertex="1">
          <mxGeometry x="758.5" y="499" width="30" height="30" as="geometry" />
        </mxCell>
        <mxCell id="qa0KmrGfhjOTzYN7xZ4N-2" value="" style="edgeStyle=orthogonalEdgeStyle;rounded=0;orthogonalLoop=1;jettySize=auto;html=1;endArrow=none;endFill=0;" parent="1" source="19JvVLlUhK9XyN5sT54u-1" target="19JvVLlUhK9XyN5sT54u-30" edge="1">
          <mxGeometry relative="1" as="geometry">
            <mxPoint x="520" y="510.03448275862047" as="sourcePoint" />
            <mxPoint x="820" y="510.03448275862047" as="targetPoint" />
            <Array as="points">
              <mxPoint x="750" y="520" />
              <mxPoint x="750" y="520" />
            </Array>
          </mxGeometry>
        </mxCell>
        <mxCell id="ELA8GRPt7nPYMNkqbqQm-1" value="&lt;b&gt;&amp;lt;&amp;lt;identificante&amp;gt;&amp;gt;&lt;/b&gt;" style="text;html=1;align=center;verticalAlign=middle;resizable=0;points=[];autosize=1;strokeColor=none;fillColor=none;fontSize=12;" parent="1" vertex="1">
          <mxGeometry x="404" y="596.5" width="120" height="30" as="geometry" />
        </mxCell>
      </root>
    </mxGraphModel>
  </diagram>
</mxfile>
